<svg id="Слой_1" data-name="Слой 1" xmlns="http://www.w3.org/2000/svg" viewBox="0 0 1452 354.92"><defs><style>.cls-1{fill:#34b768;}.cls-2{fill:none;stroke:#34b768;stroke-miterlimit:10;stroke-width:17px;}</style></defs><title>logo</title><g id="Слой_2" data-name="Слой 2"><path class="cls-1" d="M610,108.8V287.5H575v-116l-50.3,83h-4.1l-50.3-82.7V287.4H435.1V108.8h36.2l51.3,84.5,51-84.5H610Z"/><path class="cls-1" d="M678.4,253.7h75.3v33.7H643.1V108.8H752.3v33.7h-74v38h67.6v33.2H678.3v40Z"/><path class="cls-1" d="M849.4,108.8q36.75,0,61.4,25.8t24.6,63.6q0,37.8-24.6,63.6t-61.4,25.8h-71V108.8Zm0,144.9c15.5,0,28.1-5.1,37.8-15.4s14.5-23.7,14.5-40.2-4.8-29.9-14.5-40.2-22.3-15.4-37.8-15.4H813.7V253.8h35.7Z"/><path d="M1045.2,291q-40.35,0-66.6-26.8t-26.3-66.1q0-39.6,26.3-66.2t66.6-26.7a90.74,90.74,0,0,1,44.8,11.4,82.48,82.48,0,0,1,32,30.8L1091.6,165a47.49,47.49,0,0,0-18.9-18.8,56.44,56.44,0,0,0-27.6-6.8c-17.4,0-31.4,5.4-42,16.3s-16,25-16,42.4c0,17.2,5.3,31.2,16,42.1s24.6,16.3,42,16.3a57.1,57.1,0,0,0,27.7-6.8,45.92,45.92,0,0,0,18.8-18.5l30.4,17.6a84.33,84.33,0,0,1-31.9,30.8A90.57,90.57,0,0,1,1045.2,291Z"/><path d="M1257.8,287.4l-10.7-32.2h-71.2l-10.7,32.2h-38l62.5-178.7h43.6l62.8,178.7Zm-70.7-65.1h49l-24.5-73Z"/><path d="M1416.8,108.8H1452V287.5h-26.8l-76.6-109.2V287.5h-35.2V108.8h26.8l76.6,109Z"/></g><g id="Слой_3" data-name="Слой 3"><path class="cls-1" d="M54.5,127.8C46.9,122,71.3,195.6,98,238c20.5,32.4,62.1,80.5,62.3,71.8.4-14.6-11.2-53-31.8-89.8C102.2,173,63,134.3,54.5,127.8Z"/><path class="cls-1" d="M5.6,248.3c-6.3-1.1,36.1,29.5,67.6,42,32.9,13,75.3,16.4,81,19.5,3.2,1.7-36.1-28.9-69.5-42.2C49.8,253.6,11.6,249.3,5.6,248.3Z"/><path class="cls-1" d="M164.5,307.5a480.14,480.14,0,0,1,0-264Z"/><path class="cls-1" d="M36.8,335.8c-4.4,3,34.1,2.7,59-2.3,24.3-4.9,46.5-14,54.3-20.3,4-3.2-31.5-5.3-58.3,0A150.53,150.53,0,0,0,36.8,335.8Z"/><path class="cls-1" d="M120.3,354.5c2.8-4.8,4.2-14.5,12.2-24,9.6-11.3,20.2-15.4,25.5-17.8,2.9-1.3-7.3,16.1-15.8,25.2C134.6,346.2,118.7,357.2,120.3,354.5Z"/></g><g id="Слой_5" data-name="Слой 5"><path class="cls-1" d="M274.5,127.8c7.6-5.8-16.8,67.8-43.5,110.2-20.5,32.4-62.1,80.5-62.3,71.8-.4-14.6,11.2-53,31.8-89.8C226.8,173,266,134.3,274.5,127.8Z"/><path class="cls-1" d="M323.4,248.3c6.3-1.1-36.1,29.5-67.6,42-32.9,13-75.3,16.4-81,19.5-3.2,1.7,36.1-28.9,69.5-42.2C279.2,253.6,317.4,249.3,323.4,248.3Z"/><path class="cls-1" d="M164.5,307.5a481.47,481.47,0,0,0,18.5-133,480.56,480.56,0,0,0-18.5-131Z"/><path class="cls-1" d="M292.2,335.8c4.4,3-34.1,2.7-59-2.3-24.3-4.9-46.5-14-54.3-20.3-4-3.2,31.5-5.3,58.3,0A150.53,150.53,0,0,1,292.2,335.8Z"/><path class="cls-1" d="M208.8,354.5c-2.8-4.8-4.2-14.5-12.2-24-9.6-11.3-20.2-15.4-25.5-17.8-2.9-1.3,7.3,16.1,15.8,25.2C194.4,346.3,210.3,357.2,208.8,354.5Z"/></g><g id="Слой_4" data-name="Слой 4"><path class="cls-2" d="M20.5,228.5c-4.1-10-25.4-64.8,1-125,3.4-7.8,24.3-53.7,76-79a157,157,0,0,1,68-16c7.9,0,39,.7,73,19,51.6,27.7,70.9,75.1,74,83,22.5,57.6,3.4,108.1-1,119"/></g></svg>